<?xml version="1.0" encoding="utf-8"?>
<!-- Generator: Adobe Illustrator 25.0.0, SVG Export Plug-In . SVG Version: 6.00 Build 0)  -->
<svg version="1.1" id="Capa_1" xmlns="http://www.w3.org/2000/svg" xmlns:xlink="http://www.w3.org/1999/xlink" x="0px" y="0px"
	 viewBox="0 0 50 50" style="enable-background:new 0 0 50 50;" xml:space="preserve">
<g>
	<path d="M48.8,4.6C48,3.7,47,3.3,45.8,3.3H4.2C3,3.3,2,3.7,1.2,4.6C0.4,5.4,0,6.4,0,7.5v28.3C0,37,0.4,38,1.2,38.8
		C2,39.6,3,40,4.2,40h14.2c0,0.7-0.1,1.3-0.4,2c-0.3,0.7-0.6,1.3-0.8,1.8c-0.3,0.5-0.4,0.9-0.4,1.1c0,0.5,0.2,0.8,0.5,1.2
		c0.3,0.3,0.7,0.5,1.2,0.5h13.3c0.5,0,0.8-0.2,1.2-0.5c0.3-0.3,0.5-0.7,0.5-1.2c0-0.2-0.1-0.6-0.4-1.1c-0.3-0.5-0.6-1.1-0.8-1.8
		c-0.3-0.7-0.4-1.4-0.4-2h14.2c1.1,0,2.1-0.4,2.9-1.2C49.6,38,50,37,50,35.8V7.5C50,6.4,49.6,5.4,48.8,4.6z M46.7,29.2
		c0,0.2-0.1,0.4-0.2,0.6c-0.2,0.2-0.4,0.2-0.6,0.2H4.2c-0.2,0-0.4-0.1-0.6-0.2c-0.2-0.2-0.2-0.4-0.2-0.6V7.5c0-0.2,0.1-0.4,0.2-0.6
		c0.2-0.2,0.4-0.2,0.6-0.2h41.7c0.2,0,0.4,0.1,0.6,0.2c0.2,0.2,0.2,0.4,0.2,0.6V29.2L46.7,29.2z"/>
</g>
</svg>
