<?xml version="1.0" encoding="utf-8"?>
<!-- Generator: Adobe Illustrator 25.0.0, SVG Export Plug-In . SVG Version: 6.00 Build 0)  -->
<svg version="1.1" id="Layer_1" xmlns="http://www.w3.org/2000/svg" xmlns:xlink="http://www.w3.org/1999/xlink" x="0px" y="0px"
	 viewBox="0 0 50 50" style="enable-background:new 0 0 50 50;" xml:space="preserve">
<g>
	<g>
		<path d="M33.5,0H16.6c-2.9,0-5.3,2.3-5.3,5.2v39.6c0,2.9,2.4,5.2,5.3,5.2l16.9,0c2.9,0,5.2-2.3,5.2-5.2l0-39.6
			C38.7,2.3,36.4,0,33.5,0z M22.6,3.1h4.9c0.4,0,0.8,0.3,0.8,0.8c0,0.4-0.4,0.8-0.8,0.8h-4.9c-0.4,0-0.8-0.3-0.8-0.8
			C21.8,3.5,22.2,3.1,22.6,3.1z M19.7,3.4c0.3-0.3,0.8-0.3,1.1,0C20.9,3.5,21,3.7,21,3.9c0,0.2-0.1,0.4-0.2,0.6
			c-0.1,0.1-0.3,0.2-0.6,0.2c-0.2,0-0.4-0.1-0.6-0.2c-0.1-0.1-0.2-0.3-0.2-0.6C19.4,3.7,19.5,3.5,19.7,3.4z M24.9,48.5
			c-1.3,0-2.3-1-2.3-2.3c0-1.3,1-2.3,2.3-2.3c1.3,0,2.3,1,2.3,2.3C27.2,47.4,26.2,48.5,24.9,48.5z M36.3,42.2H14V7.4h22.3L36.3,42.2
			L36.3,42.2z"/>
	</g>
</g>
</svg>
